<?xml version="1.0" encoding="UTF-8" standalone="no"?>
<!DOCTYPE svg PUBLIC "-//W3C//DTD SVG 1.1//EN"
 "http://www.w3.org/Graphics/SVG/1.1/DTD/svg11.dtd">
<!-- Generated by graphviz version 7.1.0 (20230121.1956)
 -->
<!-- Pages: 1 -->
<svg width="430pt" height="335pt"
 viewBox="0.00 0.00 430.00 335.00" xmlns="http://www.w3.org/2000/svg" xmlns:xlink="http://www.w3.org/1999/xlink">
<g id="graph0" class="graph" transform="scale(1 1) rotate(0) translate(4 331)">
<polygon fill="white" stroke="none" points="-4,4 -4,-331 426,-331 426,4 -4,4"/>
<!-- 4361816400 -->
<g id="node1" class="node">
<title>4361816400</title>
<polygon fill="none" stroke="black" points="172.5,-0.5 172.5,-36.5 337.5,-36.5 337.5,-0.5 172.5,-0.5"/>
<polyline fill="none" stroke="black" points="172.5,-0.5 172.5,-36.5"/>
<text text-anchor="middle" x="215" y="-14.8" font-family="Times,serif" font-size="14.00">data=11.000</text>
<polyline fill="none" stroke="black" points="257.5,-0.5 257.5,-36.5"/>
<text text-anchor="middle" x="297.5" y="-14.8" font-family="Times,serif" font-size="14.00">grad=1.000</text>
</g>
<!-- 4361816400+ -->
<g id="node2" class="node">
<title>4361816400+</title>
<ellipse fill="none" stroke="black" cx="255" cy="-91" rx="27" ry="18"/>
<text text-anchor="middle" x="255" y="-87.3" font-family="Times,serif" font-size="14.00">+</text>
</g>
<!-- 4361816400+&#45;&gt;4361816400 -->
<g id="edge1" class="edge">
<title>4361816400+&#45;&gt;4361816400</title>
<path fill="none" stroke="black" d="M255,-72.57C255,-65.03 255,-56.02 255,-47.58"/>
<polygon fill="black" stroke="black" points="258.5,-47.75 255,-37.75 251.5,-47.75 258.5,-47.75"/>
</g>
<!-- 4361816208 -->
<g id="node3" class="node">
<title>4361816208</title>
<polygon fill="none" stroke="black" points="88,-145.5 88,-181.5 246,-181.5 246,-145.5 88,-145.5"/>
<polyline fill="none" stroke="black" points="88,-145.5 88,-181.5"/>
<text text-anchor="middle" x="127" y="-159.8" font-family="Times,serif" font-size="14.00">data=8.000</text>
<polyline fill="none" stroke="black" points="166,-145.5 166,-181.5"/>
<text text-anchor="middle" x="206" y="-159.8" font-family="Times,serif" font-size="14.00">grad=1.000</text>
</g>
<!-- 4361816208&#45;&gt;4361816400+ -->
<g id="edge5" class="edge">
<title>4361816208&#45;&gt;4361816400+</title>
<path fill="none" stroke="black" d="M187.85,-145.79C200.33,-135.8 216.27,-123.03 229.48,-112.44"/>
<polygon fill="black" stroke="black" points="231.33,-115.45 236.94,-106.47 226.95,-109.99 231.33,-115.45"/>
</g>
<!-- 4361816208* -->
<g id="node4" class="node">
<title>4361816208*</title>
<ellipse fill="none" stroke="black" cx="167" cy="-236" rx="27" ry="18"/>
<text text-anchor="middle" x="167" y="-232.3" font-family="Times,serif" font-size="14.00">*</text>
</g>
<!-- 4361816208*&#45;&gt;4361816208 -->
<g id="edge2" class="edge">
<title>4361816208*&#45;&gt;4361816208</title>
<path fill="none" stroke="black" d="M167,-217.57C167,-210.03 167,-201.02 167,-192.58"/>
<polygon fill="black" stroke="black" points="170.5,-192.75 167,-182.75 163.5,-192.75 170.5,-192.75"/>
</g>
<!-- 4361816160 -->
<g id="node5" class="node">
<title>4361816160</title>
<polygon fill="none" stroke="black" points="0,-290.5 0,-326.5 158,-326.5 158,-290.5 0,-290.5"/>
<polyline fill="none" stroke="black" points="0,-290.5 0,-326.5"/>
<text text-anchor="middle" x="39" y="-304.8" font-family="Times,serif" font-size="14.00">data=4.000</text>
<polyline fill="none" stroke="black" points="78,-290.5 78,-326.5"/>
<text text-anchor="middle" x="118" y="-304.8" font-family="Times,serif" font-size="14.00">grad=2.000</text>
</g>
<!-- 4361816160&#45;&gt;4361816208* -->
<g id="edge3" class="edge">
<title>4361816160&#45;&gt;4361816208*</title>
<path fill="none" stroke="black" d="M99.85,-290.79C112.33,-280.8 128.27,-268.03 141.48,-257.44"/>
<polygon fill="black" stroke="black" points="143.33,-260.45 148.94,-251.47 138.95,-254.99 143.33,-260.45"/>
</g>
<!-- 4335026144 -->
<g id="node6" class="node">
<title>4335026144</title>
<polygon fill="none" stroke="black" points="176,-290.5 176,-326.5 334,-326.5 334,-290.5 176,-290.5"/>
<polyline fill="none" stroke="black" points="176,-290.5 176,-326.5"/>
<text text-anchor="middle" x="215" y="-304.8" font-family="Times,serif" font-size="14.00">data=2.000</text>
<polyline fill="none" stroke="black" points="254,-290.5 254,-326.5"/>
<text text-anchor="middle" x="294" y="-304.8" font-family="Times,serif" font-size="14.00">grad=4.000</text>
</g>
<!-- 4335026144&#45;&gt;4361816208* -->
<g id="edge4" class="edge">
<title>4335026144&#45;&gt;4361816208*</title>
<path fill="none" stroke="black" d="M234.15,-290.79C221.67,-280.8 205.73,-268.03 192.52,-257.44"/>
<polygon fill="black" stroke="black" points="195.05,-254.99 185.06,-251.47 190.67,-260.45 195.05,-254.99"/>
</g>
<!-- 4361815968 -->
<g id="node7" class="node">
<title>4361815968</title>
<polygon fill="none" stroke="black" points="264,-145.5 264,-181.5 422,-181.5 422,-145.5 264,-145.5"/>
<polyline fill="none" stroke="black" points="264,-145.5 264,-181.5"/>
<text text-anchor="middle" x="303" y="-159.8" font-family="Times,serif" font-size="14.00">data=3.000</text>
<polyline fill="none" stroke="black" points="342,-145.5 342,-181.5"/>
<text text-anchor="middle" x="382" y="-159.8" font-family="Times,serif" font-size="14.00">grad=1.000</text>
</g>
<!-- 4361815968&#45;&gt;4361816400+ -->
<g id="edge6" class="edge">
<title>4361815968&#45;&gt;4361816400+</title>
<path fill="none" stroke="black" d="M322.15,-145.79C309.67,-135.8 293.73,-123.03 280.52,-112.44"/>
<polygon fill="black" stroke="black" points="283.05,-109.99 273.06,-106.47 278.67,-115.45 283.05,-109.99"/>
</g>
</g>
</svg>
