<?xml version="1.0" encoding="UTF-8" standalone="no"?>
<!DOCTYPE svg PUBLIC "-//W3C//DTD SVG 1.1//EN"
 "http://www.w3.org/Graphics/SVG/1.1/DTD/svg11.dtd">
<!-- Generated by graphviz version 7.1.0 (20230121.1956)
 -->
<!-- Pages: 1 -->
<svg width="434pt" height="480pt"
 viewBox="0.00 0.00 433.50 480.00" xmlns="http://www.w3.org/2000/svg" xmlns:xlink="http://www.w3.org/1999/xlink">
<g id="graph0" class="graph" transform="scale(1 1) rotate(0) translate(4 476)">
<polygon fill="white" stroke="none" points="-4,4 -4,-476 429.5,-476 429.5,4 -4,4"/>
<!-- 4361666096 -->
<g id="node1" class="node">
<title>4361666096</title>
<polygon fill="none" stroke="black" points="179.5,-0.5 179.5,-36.5 337.5,-36.5 337.5,-0.5 179.5,-0.5"/>
<polyline fill="none" stroke="black" points="179.5,-0.5 179.5,-36.5"/>
<text text-anchor="middle" x="218.5" y="-14.8" font-family="Times,serif" font-size="14.00">data=0.995</text>
<polyline fill="none" stroke="black" points="257.5,-0.5 257.5,-36.5"/>
<text text-anchor="middle" x="297.5" y="-14.8" font-family="Times,serif" font-size="14.00">grad=1.000</text>
</g>
<!-- 4361666096tanh -->
<g id="node2" class="node">
<title>4361666096tanh</title>
<ellipse fill="none" stroke="black" cx="258.5" cy="-91" rx="27" ry="18"/>
<text text-anchor="middle" x="258.5" y="-87.3" font-family="Times,serif" font-size="14.00">tanh</text>
</g>
<!-- 4361666096tanh&#45;&gt;4361666096 -->
<g id="edge1" class="edge">
<title>4361666096tanh&#45;&gt;4361666096</title>
<path fill="none" stroke="black" d="M258.5,-72.57C258.5,-65.03 258.5,-56.02 258.5,-47.58"/>
<polygon fill="black" stroke="black" points="262,-47.75 258.5,-37.75 255,-47.75 262,-47.75"/>
</g>
<!-- 4361665904 -->
<g id="node3" class="node">
<title>4361665904</title>
<polygon fill="none" stroke="black" points="179.5,-145.5 179.5,-181.5 337.5,-181.5 337.5,-145.5 179.5,-145.5"/>
<polyline fill="none" stroke="black" points="179.5,-145.5 179.5,-181.5"/>
<text text-anchor="middle" x="218.5" y="-159.8" font-family="Times,serif" font-size="14.00">data=3.000</text>
<polyline fill="none" stroke="black" points="257.5,-145.5 257.5,-181.5"/>
<text text-anchor="middle" x="297.5" y="-159.8" font-family="Times,serif" font-size="14.00">grad=0.010</text>
</g>
<!-- 4361665904&#45;&gt;4361666096tanh -->
<g id="edge8" class="edge">
<title>4361665904&#45;&gt;4361666096tanh</title>
<path fill="none" stroke="black" d="M258.5,-145.79C258.5,-138.18 258.5,-128.95 258.5,-120.3"/>
<polygon fill="black" stroke="black" points="262,-120.59 258.5,-110.59 255,-120.59 262,-120.59"/>
</g>
<!-- 4361665904* -->
<g id="node4" class="node">
<title>4361665904*</title>
<ellipse fill="none" stroke="black" cx="258.5" cy="-236" rx="27" ry="18"/>
<text text-anchor="middle" x="258.5" y="-232.3" font-family="Times,serif" font-size="14.00">*</text>
</g>
<!-- 4361665904*&#45;&gt;4361665904 -->
<g id="edge2" class="edge">
<title>4361665904*&#45;&gt;4361665904</title>
<path fill="none" stroke="black" d="M258.5,-217.57C258.5,-210.03 258.5,-201.02 258.5,-192.58"/>
<polygon fill="black" stroke="black" points="262,-192.75 258.5,-182.75 255,-192.75 262,-192.75"/>
</g>
<!-- 4361665664 -->
<g id="node5" class="node">
<title>4361665664</title>
<polygon fill="none" stroke="black" points="91.5,-290.5 91.5,-326.5 249.5,-326.5 249.5,-290.5 91.5,-290.5"/>
<polyline fill="none" stroke="black" points="91.5,-290.5 91.5,-326.5"/>
<text text-anchor="middle" x="130.5" y="-304.8" font-family="Times,serif" font-size="14.00">data=1.000</text>
<polyline fill="none" stroke="black" points="169.5,-290.5 169.5,-326.5"/>
<text text-anchor="middle" x="209.5" y="-304.8" font-family="Times,serif" font-size="14.00">grad=0.030</text>
</g>
<!-- 4361665664&#45;&gt;4361665904* -->
<g id="edge6" class="edge">
<title>4361665664&#45;&gt;4361665904*</title>
<path fill="none" stroke="black" d="M191.35,-290.79C203.83,-280.8 219.77,-268.03 232.98,-257.44"/>
<polygon fill="black" stroke="black" points="234.83,-260.45 240.44,-251.47 230.45,-254.99 234.83,-260.45"/>
</g>
<!-- 4361665664+ -->
<g id="node6" class="node">
<title>4361665664+</title>
<ellipse fill="none" stroke="black" cx="170.5" cy="-381" rx="27" ry="18"/>
<text text-anchor="middle" x="170.5" y="-377.3" font-family="Times,serif" font-size="14.00">+</text>
</g>
<!-- 4361665664+&#45;&gt;4361665664 -->
<g id="edge3" class="edge">
<title>4361665664+&#45;&gt;4361665664</title>
<path fill="none" stroke="black" d="M170.5,-362.57C170.5,-355.03 170.5,-346.02 170.5,-337.58"/>
<polygon fill="black" stroke="black" points="174,-337.75 170.5,-327.75 167,-337.75 174,-337.75"/>
</g>
<!-- 4350624016 -->
<g id="node7" class="node">
<title>4350624016</title>
<polygon fill="none" stroke="black" points="0,-435.5 0,-471.5 163,-471.5 163,-435.5 0,-435.5"/>
<polyline fill="none" stroke="black" points="0,-435.5 0,-471.5"/>
<text text-anchor="middle" x="41.5" y="-449.8" font-family="Times,serif" font-size="14.00">data=&#45;1.000</text>
<polyline fill="none" stroke="black" points="83,-435.5 83,-471.5"/>
<text text-anchor="middle" x="123" y="-449.8" font-family="Times,serif" font-size="14.00">grad=0.030</text>
</g>
<!-- 4350624016&#45;&gt;4361665664+ -->
<g id="edge4" class="edge">
<title>4350624016&#45;&gt;4361665664+</title>
<path fill="none" stroke="black" d="M102.59,-435.79C115.29,-425.74 131.54,-412.86 144.96,-402.23"/>
<polygon fill="black" stroke="black" points="146.87,-405.18 152.53,-396.23 142.52,-399.7 146.87,-405.18"/>
</g>
<!-- 4350624208 -->
<g id="node8" class="node">
<title>4350624208</title>
<polygon fill="none" stroke="black" points="181.5,-435.5 181.5,-471.5 339.5,-471.5 339.5,-435.5 181.5,-435.5"/>
<polyline fill="none" stroke="black" points="181.5,-435.5 181.5,-471.5"/>
<text text-anchor="middle" x="220.5" y="-449.8" font-family="Times,serif" font-size="14.00">data=2.000</text>
<polyline fill="none" stroke="black" points="259.5,-435.5 259.5,-471.5"/>
<text text-anchor="middle" x="299.5" y="-449.8" font-family="Times,serif" font-size="14.00">grad=0.030</text>
</g>
<!-- 4350624208&#45;&gt;4361665664+ -->
<g id="edge5" class="edge">
<title>4350624208&#45;&gt;4361665664+</title>
<path fill="none" stroke="black" d="M239.17,-435.79C226.33,-425.74 209.9,-412.86 196.33,-402.23"/>
<polygon fill="black" stroke="black" points="198.69,-399.64 188.66,-396.22 194.37,-405.15 198.69,-399.64"/>
</g>
<!-- 4361665712 -->
<g id="node9" class="node">
<title>4361665712</title>
<polygon fill="none" stroke="black" points="267.5,-290.5 267.5,-326.5 425.5,-326.5 425.5,-290.5 267.5,-290.5"/>
<polyline fill="none" stroke="black" points="267.5,-290.5 267.5,-326.5"/>
<text text-anchor="middle" x="306.5" y="-304.8" font-family="Times,serif" font-size="14.00">data=3.000</text>
<polyline fill="none" stroke="black" points="345.5,-290.5 345.5,-326.5"/>
<text text-anchor="middle" x="385.5" y="-304.8" font-family="Times,serif" font-size="14.00">grad=0.010</text>
</g>
<!-- 4361665712&#45;&gt;4361665904* -->
<g id="edge7" class="edge">
<title>4361665712&#45;&gt;4361665904*</title>
<path fill="none" stroke="black" d="M325.65,-290.79C313.17,-280.8 297.23,-268.03 284.02,-257.44"/>
<polygon fill="black" stroke="black" points="286.55,-254.99 276.56,-251.47 282.17,-260.45 286.55,-254.99"/>
</g>
</g>
</svg>
